<?xml version="1.0" encoding="utf-8"?>
<!-- Generator: Adobe Illustrator 28.1.0, SVG Export Plug-In . SVG Version: 6.00 Build 0)  -->
<svg version="1.1" id="Layer_1" xmlns="http://www.w3.org/2000/svg" xmlns:xlink="http://www.w3.org/1999/xlink" x="0px" y="0px"
	 viewBox="0 0 1609.6 180.9" style="enable-background:new 0 0 1609.6 180.9;" xml:space="preserve">
<style type="text/css">
	.st0{fill:#FFFFFF;stroke:#000000;stroke-width:0.25;stroke-linecap:round;stroke-linejoin:round;stroke-miterlimit:10;}
	.st1{fill:#FFFFFF;}
</style>
<g>
	<path class="st0" d="M143,144.6c-0.1-1.9-0.2-3.5-0.2-5.2s-0.1-2-1.9-2h-21.4c-4.1,0-8.3,0-12.2,0.1h-9.8c-0.9,0-1.4,0.2-1.4,1.3
		c-0.1,2.2-0.3,4.4-0.2,6.6s0.3,4.5,0.9,6.8c0.6,2.6,2,4.9,3.6,6.9c3.4,4.2,7.8,6.5,13.2,6.8c4,0.1,7.9,0.1,11.8,0
		c5.4-0.2,9.8-2.7,12.9-6.8C141.8,155,143.1,150,143,144.6z M139.2,145.7c-0.1,4.4-1.4,8.5-4.4,11.7c-2.6,2.8-5.8,4.4-9.5,4.7
		c-4,0.2-8,0.2-11.9,0c-4.1-0.2-7.5-2.1-10-5.4c-2.9-3.5-3.8-7.5-3.7-11.8v-3.6h39.5L139.2,145.7L139.2,145.7z M143,144.6
		c-0.1-1.9-0.2-3.5-0.2-5.2s-0.1-2-1.9-2h-21.4c-4.1,0-8.3,0-12.2,0.1h-9.8c-0.9,0-1.4,0.2-1.4,1.3c-0.1,2.2-0.3,4.4-0.2,6.6
		s0.3,4.5,0.9,6.8c0.6,2.6,2,4.9,3.6,6.9c3.4,4.2,7.8,6.5,13.2,6.8c4,0.1,7.9,0.1,11.8,0c5.4-0.2,9.8-2.7,12.9-6.8
		C141.8,155,143.1,150,143,144.6z M139.2,145.7c-0.1,4.4-1.4,8.5-4.4,11.7c-2.6,2.8-5.8,4.4-9.5,4.7c-4,0.2-8,0.2-11.9,0
		c-4.1-0.2-7.5-2.1-10-5.4c-2.9-3.5-3.8-7.5-3.7-11.8v-3.6h39.5L139.2,145.7L139.2,145.7z M143,144.6c-0.1-1.9-0.2-3.5-0.2-5.2
		s-0.1-2-1.9-2h-21.4c-4.1,0-8.3,0-12.2,0.1h-9.8c-0.9,0-1.4,0.2-1.4,1.3c-0.1,2.2-0.3,4.4-0.2,6.6s0.3,4.5,0.9,6.8
		c0.6,2.6,2,4.9,3.6,6.9c3.4,4.2,7.8,6.5,13.2,6.8c4,0.1,7.9,0.1,11.8,0c5.4-0.2,9.8-2.7,12.9-6.8C141.8,155,143.1,150,143,144.6z
		 M139.2,145.7c-0.1,4.4-1.4,8.5-4.4,11.7c-2.6,2.8-5.8,4.4-9.5,4.7c-4,0.2-8,0.2-11.9,0c-4.1-0.2-7.5-2.1-10-5.4
		c-2.9-3.5-3.8-7.5-3.7-11.8v-3.6h39.5L139.2,145.7L139.2,145.7z M143,144.6c-0.1-1.9-0.2-3.5-0.2-5.2s-0.1-2-1.9-2h-21.4
		c-4.1,0-8.3,0-12.2,0.1h-9.8c-0.9,0-1.4,0.2-1.4,1.3c-0.1,2.2-0.3,4.4-0.2,6.6s0.3,4.5,0.9,6.8c0.6,2.6,2,4.9,3.6,6.9
		c3.4,4.2,7.8,6.5,13.2,6.8c4,0.1,7.9,0.1,11.8,0c5.4-0.2,9.8-2.7,12.9-6.8C141.8,155,143.1,150,143,144.6z M139.2,145.7
		c-0.1,4.4-1.4,8.5-4.4,11.7c-2.6,2.8-5.8,4.4-9.5,4.7c-4,0.2-8,0.2-11.9,0c-4.1-0.2-7.5-2.1-10-5.4c-2.9-3.5-3.8-7.5-3.7-11.8v-3.6
		h39.5L139.2,145.7L139.2,145.7z M143,144.6c-0.1-1.9-0.2-3.5-0.2-5.2s-0.1-2-1.9-2h-21.4c-4.1,0-8.3,0-12.2,0.1h-9.8
		c-0.9,0-1.4,0.2-1.4,1.3c-0.1,2.2-0.3,4.4-0.2,6.6s0.3,4.5,0.9,6.8c0.6,2.6,2,4.9,3.6,6.9c3.4,4.2,7.8,6.5,13.2,6.8
		c4,0.1,7.9,0.1,11.8,0c5.4-0.2,9.8-2.7,12.9-6.8C141.8,155,143.1,150,143,144.6z M139.2,145.7c-0.1,4.4-1.4,8.5-4.4,11.7
		c-2.6,2.8-5.8,4.4-9.5,4.7c-4,0.2-8,0.2-11.9,0c-4.1-0.2-7.5-2.1-10-5.4c-2.9-3.5-3.8-7.5-3.7-11.8v-3.6h39.5L139.2,145.7
		L139.2,145.7z M143,144.6c-0.1-1.9-0.2-3.5-0.2-5.2s-0.1-2-1.9-2h-21.4c-4.1,0-8.3,0-12.2,0.1h-9.8c-0.9,0-1.4,0.2-1.4,1.3
		c-0.1,2.2-0.3,4.4-0.2,6.6s0.3,4.5,0.9,6.8c0.6,2.6,2,4.9,3.6,6.9c3.4,4.2,7.8,6.5,13.2,6.8c4,0.1,7.9,0.1,11.8,0
		c5.4-0.2,9.8-2.7,12.9-6.8C141.8,155,143.1,150,143,144.6z M139.2,145.7c-0.1,4.4-1.4,8.5-4.4,11.7c-2.6,2.8-5.8,4.4-9.5,4.7
		c-4,0.2-8,0.2-11.9,0c-4.1-0.2-7.5-2.1-10-5.4c-2.9-3.5-3.8-7.5-3.7-11.8v-3.6h39.5L139.2,145.7L139.2,145.7z M143,144.6
		c-0.1-1.9-0.2-3.5-0.2-5.2s-0.1-2-1.9-2h-21.4c-4.1,0-8.3,0-12.2,0.1h-9.8c-0.9,0-1.4,0.2-1.4,1.3c-0.1,2.2-0.3,4.4-0.2,6.6
		s0.3,4.5,0.9,6.8c0.6,2.6,2,4.9,3.6,6.9c3.4,4.2,7.8,6.5,13.2,6.8c4,0.1,7.9,0.1,11.8,0c5.4-0.2,9.8-2.7,12.9-6.8
		C141.8,155,143.1,150,143,144.6z M139.2,145.7c-0.1,4.4-1.4,8.5-4.4,11.7c-2.6,2.8-5.8,4.4-9.5,4.7c-4,0.2-8,0.2-11.9,0
		c-4.1-0.2-7.5-2.1-10-5.4c-2.9-3.5-3.8-7.5-3.7-11.8v-3.6h39.5L139.2,145.7L139.2,145.7z M143,144.6c-0.1-1.9-0.2-3.5-0.2-5.2
		s-0.1-2-1.9-2h-21.4c-4.1,0-8.3,0-12.2,0.1h-9.8c-0.9,0-1.4,0.2-1.4,1.3c-0.1,2.2-0.3,4.4-0.2,6.6s0.3,4.5,0.9,6.8
		c0.6,2.6,2,4.9,3.6,6.9c3.4,4.2,7.8,6.5,13.2,6.8c4,0.1,7.9,0.1,11.8,0c5.4-0.2,9.8-2.7,12.9-6.8C141.8,155,143.1,150,143,144.6z
		 M139.2,145.7c-0.1,4.4-1.4,8.5-4.4,11.7c-2.6,2.8-5.8,4.4-9.5,4.7c-4,0.2-8,0.2-11.9,0c-4.1-0.2-7.5-2.1-10-5.4
		c-2.9-3.5-3.8-7.5-3.7-11.8v-3.6h39.5L139.2,145.7L139.2,145.7z M143,144.6c-0.1-1.9-0.2-3.5-0.2-5.2s-0.1-2-1.9-2h-21.4
		c-4.1,0-8.3,0-12.2,0.1h-9.8c-0.9,0-1.4,0.2-1.4,1.3c-0.1,2.2-0.3,4.4-0.2,6.6s0.3,4.5,0.9,6.8c0.6,2.6,2,4.9,3.6,6.9
		c3.4,4.2,7.8,6.5,13.2,6.8c4,0.1,7.9,0.1,11.8,0c5.4-0.2,9.8-2.7,12.9-6.8C141.8,155,143.1,150,143,144.6z M139.2,145.7
		c-0.1,4.4-1.4,8.5-4.4,11.7c-2.6,2.8-5.8,4.4-9.5,4.7c-4,0.2-8,0.2-11.9,0c-4.1-0.2-7.5-2.1-10-5.4c-2.9-3.5-3.8-7.5-3.7-11.8v-3.6
		h39.5L139.2,145.7L139.2,145.7z M143,144.6c-0.1-1.9-0.2-3.5-0.2-5.2s-0.1-2-1.9-2h-21.4c-4.1,0-8.3,0-12.2,0.1h-9.8
		c-0.9,0-1.4,0.2-1.4,1.3c-0.1,2.2-0.3,4.4-0.2,6.6s0.3,4.5,0.9,6.8c0.6,2.6,2,4.9,3.6,6.9c3.4,4.2,7.8,6.5,13.2,6.8
		c4,0.1,7.9,0.1,11.8,0c5.4-0.2,9.8-2.7,12.9-6.8C141.8,155,143.1,150,143,144.6z M139.2,145.7c-0.1,4.4-1.4,8.5-4.4,11.7
		c-2.6,2.8-5.8,4.4-9.5,4.7c-4,0.2-8,0.2-11.9,0c-4.1-0.2-7.5-2.1-10-5.4c-2.9-3.5-3.8-7.5-3.7-11.8v-3.6h39.5L139.2,145.7
		L139.2,145.7z M143,144.6c-0.1-1.9-0.2-3.5-0.2-5.2s-0.1-2-1.9-2h-21.4c-4.1,0-8.3,0-12.2,0.1h-9.8c-0.9,0-1.4,0.2-1.4,1.3
		c-0.1,2.2-0.3,4.4-0.2,6.6s0.3,4.5,0.9,6.8c0.6,2.6,2,4.9,3.6,6.9c3.4,4.2,7.8,6.5,13.2,6.8c4,0.1,7.9,0.1,11.8,0
		c5.4-0.2,9.8-2.7,12.9-6.8C141.8,155,143.1,150,143,144.6z M139.2,145.7c-0.1,4.4-1.4,8.5-4.4,11.7c-2.6,2.8-5.8,4.4-9.5,4.7
		c-4,0.2-8,0.2-11.9,0c-4.1-0.2-7.5-2.1-10-5.4c-2.9-3.5-3.8-7.5-3.7-11.8v-3.6h39.5L139.2,145.7L139.2,145.7z M143,144.6
		c-0.1-1.9-0.2-3.5-0.2-5.2s-0.1-2-1.9-2h-21.4c-4.1,0-8.3,0-12.2,0.1h-9.8c-0.9,0-1.4,0.2-1.4,1.3c-0.1,2.2-0.3,4.4-0.2,6.6
		s0.3,4.5,0.9,6.8c0.6,2.6,2,4.9,3.6,6.9c3.4,4.2,7.8,6.5,13.2,6.8c4,0.1,7.9,0.1,11.8,0c5.4-0.2,9.8-2.7,12.9-6.8
		C141.8,155,143.1,150,143,144.6z M139.2,145.7c-0.1,4.4-1.4,8.5-4.4,11.7c-2.6,2.8-5.8,4.4-9.5,4.7c-4,0.2-8,0.2-11.9,0
		c-4.1-0.2-7.5-2.1-10-5.4c-2.9-3.5-3.8-7.5-3.7-11.8v-3.6h39.5L139.2,145.7L139.2,145.7z M143,144.6c-0.1-1.9-0.2-3.5-0.2-5.2
		s-0.1-2-1.9-2h-21.4c-4.1,0-8.3,0-12.2,0.1h-9.8c-0.9,0-1.4,0.2-1.4,1.3c-0.1,2.2-0.3,4.4-0.2,6.6s0.3,4.5,0.9,6.8
		c0.6,2.6,2,4.9,3.6,6.9c3.4,4.2,7.8,6.5,13.2,6.8c4,0.1,7.9,0.1,11.8,0c5.4-0.2,9.8-2.7,12.9-6.8C141.8,155,143.1,150,143,144.6z
		 M139.2,145.7c-0.1,4.4-1.4,8.5-4.4,11.7c-2.6,2.8-5.8,4.4-9.5,4.7c-4,0.2-8,0.2-11.9,0c-4.1-0.2-7.5-2.1-10-5.4
		c-2.9-3.5-3.8-7.5-3.7-11.8v-3.6h39.5L139.2,145.7L139.2,145.7z M143,144.6c-0.1-1.9-0.2-3.5-0.2-5.2s-0.1-2-1.9-2h-21.4
		c-4.1,0-8.3,0-12.2,0.1h-9.8c-0.9,0-1.4,0.2-1.4,1.3c-0.1,2.2-0.3,4.4-0.2,6.6s0.3,4.5,0.9,6.8c0.6,2.6,2,4.9,3.6,6.9
		c3.4,4.2,7.8,6.5,13.2,6.8c4,0.1,7.9,0.1,11.8,0c5.4-0.2,9.8-2.7,12.9-6.8C141.8,155,143.1,150,143,144.6z M139.2,145.7
		c-0.1,4.4-1.4,8.5-4.4,11.7c-2.6,2.8-5.8,4.4-9.5,4.7c-4,0.2-8,0.2-11.9,0c-4.1-0.2-7.5-2.1-10-5.4c-2.9-3.5-3.8-7.5-3.7-11.8v-3.6
		h39.5L139.2,145.7L139.2,145.7z M143,144.6c-0.1-1.9-0.2-3.5-0.2-5.2s-0.1-2-1.9-2h-21.4c-4.1,0-8.3,0-12.2,0.1h-9.8
		c-0.9,0-1.4,0.2-1.4,1.3c-0.1,2.2-0.3,4.4-0.2,6.6s0.3,4.5,0.9,6.8c0.6,2.6,2,4.9,3.6,6.9c3.4,4.2,7.8,6.5,13.2,6.8
		c4,0.1,7.9,0.1,11.8,0c5.4-0.2,9.8-2.7,12.9-6.8C141.8,155,143.1,150,143,144.6z M139.2,145.7c-0.1,4.4-1.4,8.5-4.4,11.7
		c-2.6,2.8-5.8,4.4-9.5,4.7c-4,0.2-8,0.2-11.9,0c-4.1-0.2-7.5-2.1-10-5.4c-2.9-3.5-3.8-7.5-3.7-11.8v-3.6h39.5L139.2,145.7
		L139.2,145.7z M143,144.6c-0.1-1.9-0.2-3.5-0.2-5.2s-0.1-2-1.9-2h-21.4c-4.1,0-8.3,0-12.2,0.1h-9.8c-0.9,0-1.4,0.2-1.4,1.3
		c-0.1,2.2-0.3,4.4-0.2,6.6s0.3,4.5,0.9,6.8c0.6,2.6,2,4.9,3.6,6.9c3.4,4.2,7.8,6.5,13.2,6.8c4,0.1,7.9,0.1,11.8,0
		c5.4-0.2,9.8-2.7,12.9-6.8C141.8,155,143.1,150,143,144.6z M139.2,145.7c-0.1,4.4-1.4,8.5-4.4,11.7c-2.6,2.8-5.8,4.4-9.5,4.7
		c-4,0.2-8,0.2-11.9,0c-4.1-0.2-7.5-2.1-10-5.4c-2.9-3.5-3.8-7.5-3.7-11.8v-3.6h39.5L139.2,145.7L139.2,145.7z M196.8,135.6
		c-0.6-0.3-1.2-1-1.5-1.6c-0.6-1.5-1.6-2.3-2.8-3.1c-0.7-0.5-1.3-1-1.6-1.7c-0.6-1.4-1.5-2.1-2.6-2.9c-2-1.4-4.1-1.3-6.1-0.5
		s-2,0.9-3.1-0.8c-0.2-0.3-0.5-0.7-0.7-1.2c-1.2-2.5-2.3-5.1-3.6-7.7c-2.5-5.4-5-10.4-7.5-15.7c-2.1-4.7-4.5-9.1-6.1-13.9
		c-0.8-2.7-2.5-5-5-6.3c-2.7-1.6-5.8-2.5-9-2.7c-0.8,0-1-0.3-1-1v-2.9c0.1-0.7-0.2-0.9-0.9-0.9h-7.9v-7.1c-0.1-1,0.2-2,1-2.7
		c2.1-2.3,3.5-5.1,3.7-8.3c0.1-1.7,0.5-3.1,1.5-4.7c2.8-3.8,4.5-8.3,4.4-13c0-0.1,0.1-0.2,0.2-0.5c2,0,4.1,0.1,6.1,0
		c3.8-0.1,5.4-0.8,6.3-4.5c0.2-0.8,0.1-1.7,0.1-2.6c-0.1-3.4-2.7-5.8-6.1-5.8c-2.5,0-5,0.2-7.5,0.2c-0.9,0-1.9,0.2-2.3-0.9
		c-0.9-2-2-3.7-3-5.6c-1.5-2.2-2.5-4.7-3-7.2c-0.5-2.1-1.6-4.1-3-5.8C133,0.8,129.1,0,125.2,0c-4.8,0-9.4-0.1-14.2,0
		c-6.2,0.1-10.5,3.6-12.3,9.4c-0.5,1.6-0.8,3.3-1.5,4.8c-1.4,2.9-3,5.7-4.7,8.5c-0.2,0.3-0.8,0.8-1.3,0.8c-2.8,0.1-5.8,0.2-8.6,0.2
		c-3.7,0-5.4,1.5-5.9,4.8c-0.7,4.4,0.9,8.2,6.6,7.9c3.5-0.1,7,0,10.4,0c1,0,1.4,0.3,1.4,1.4v17.7c0,0.2-0.1,0.6-0.1,0.9
		c-0.1,1.4-0.3,2.6-0.6,4c-0.1,1.2,0.3,1.6,1.5,1.5c1.6-0.2,2.7,0.3,3.8,1.5c1.2,1.2,2.6,2,4.2,2.6c2.1,0.7,4.5,1,7,1.6v5.1h-7.7
		c-0.8-0.1-1.2,0.2-1.2,1v2.9c0.1,0.7-0.2,0.9-0.9,0.9c-2.5,0-4.9,0.7-7,1.7c-5.1,2.3-8,6.1-7.9,11.9c0.1,7.6,0,14.9,0,22.5v2.8
		c-0.9-0.6-1.6-1-2.1-1.5c-6.8-5.2-13.4-10.3-20.2-15.5c-1.6-1.3-1.9-1.2-3.3,0.2c-0.2,0.3-0.7,0.6-1.2,0.8
		c-0.1-0.5-0.5-0.9-0.5-1.4c0-1.4-0.5-2.5-1.5-3.5c-0.3-0.2-0.6-0.7-1-1.3h6.1c2.1,0.1,4.2-0.3,6.1-1.5c2.7-1.7,4.7-4,4.8-7.3
		c0-2.1-0.1-2.2-2.2-2.2H50.1v-2.6c2.2-0.2,4.5-0.2,6.6-0.7c7.5-1.7,10.2-8.4,7.3-14.5c-1.5-3.3-4.4-5.1-7.9-5.7
		c-2-0.3-4-0.3-6.1-0.5c0-0.2-0.1-0.3-0.1-0.6c-0.6-2-0.6-2-2.6-2H20.8c-2.1,0-2.6,0.5-2.6,2.6V83h-2.3c-4.5,0-9,0.1-13.4,0.1
		c-2.1,0-2.7,0.8-2.2,2.9c1,4.9,5.2,8.2,10.2,8.2c3-0.1,6.1,0.1,9.1-0.1c1.9-0.1,2.8,0.6,3.8,2c2.1,2.9,4.7,5.6,8.2,6.8
		c2.6,0.9,5.2,1.5,7.8,2.1c2.5,0.6,5.1,1,7.1,2.7c1.3,1,2.6,2.1,4,3c0.8,0.5,0.6,0.8,0.1,1.4c-0.7,0.7-1.4,1.5-2,2.2
		c-0.9,1.2-0.9,1.9,0.2,2.8c0.8,0.7,1.6,1.3,2.3,2c7.2,5.6,14.3,11.1,21.7,16.7c4.2,3.3,8.5,6.5,12.7,9.8c1,0.8,1.5,1.6,1.5,2.9
		c0,6.9-0.1,13.7,0,20.6c0,2.7,0.3,5.6,2,7.9c1.5,2,3.3,3.4,5.8,3.6c2.6,0.2,5.4,0.2,7.9,0.2c14.3,0,28.8-0.1,43-0.1
		c1.6,0,3-0.3,4.3-1.5c0.6-0.6,0.9-0.5,1.6,0c0.8,0.7,1.7,1.3,2.7,1.5c1.2,0.3,2.3,0.2,3.6,0.2c10.7,0,21.7,0,32.4-0.1
		c2.3,0,4.4-2,4.7-4.3c0.3-3.3,0.6-6.6,0.8-9.9c0.3-6.1,0.6-11.8,0.8-17.8c0-1.2,0.1-2.3,1.6-2.7c0.3-0.1,0.6-0.3,0.8-0.6
		C200.5,143.1,201,137.6,196.8,135.6z M50.7,63.1c3.1,0.1,6.2,0.1,9.1,2c3,2,3.4,8.4-1.2,10.3c-2.6,1.2-5.2,1.3-7.9,1
		C50.7,76.5,50.7,63.1,50.7,63.1z M10.8,90.2c-1.9,0-3.4-0.7-4.8-1.7c-0.5-0.3-0.7-0.9-1-1.4c0.1-0.1,0.1-0.2,0.2-0.3h14
		c0.8-0.1,1.2,0.1,1.2,1c0,0.8,0.1,1.6,0.2,2.3L10.8,90.2L10.8,90.2z M69.9,87c-0.2,1.3-1.2,1.9-2,2.3c-1.7,1.2-3.7,1.2-5.7,1.2
		c-8.6,0-17-0.1-25.5-0.1h-3.6c-1,0-1.9-0.3-2.5-1.2c-0.6-0.8-1.5-1.4-2.3-2.2C28.3,87,69.9,87,69.9,87z M21.9,83.1V60.6h24.9v4.7
		c0,5.4,0.1,10.5,0.1,15.8c0.1,2,0,2-2,2C45.1,83.1,21.9,83.1,21.9,83.1z M47.5,104c-2-1-4.2-1.6-6.3-2.2c-2.5-0.7-5.1-1.3-7.6-2
		c-2.9-0.9-5.1-3-6.9-5.5c-0.9-1.4-1.6-2.8-2.3-4.2c-0.1-0.3-0.1-0.6-0.2-0.9c0-0.1,0.1-0.1,0.2-0.2c2.1,1.4,4.1,3,5.8,5.2
		c0.5,0.6,1,1.2,1.3,1.9c0.8,2,2.2,1.7,3.5,1c4.2-2.3,8.7-2.1,13.3-1.9c2.3,0.2,4.7,0.7,6.6,2c1.5,1,1.7,1.4,0.9,2.7
		c-0.7,1.3,0.1,2,0.9,2.6c0.5,0.3,1,0.6,1.6,0.9c-0.1,0.2-0.2,0.6-0.5,0.8c-1,1.3-2.1,2.5-3.1,3.7c-0.6,0.7-1,0.8-1.9,0.1
		C51.1,106.5,49.4,105,47.5,104z M87.1,142.3c-2.9-2.2-5.7-4.4-8.5-6.3c-6.1-4.7-12.1-9.4-18.3-14.1c-2.3-1.9-4.7-3.6-7-5.5
		c-0.7-0.6-0.7-0.9-0.1-1.6c2.9-3.3,5.9-6.5,8.7-9.8c1.6-1.9,1.5-1.9,3.4-0.3c6.6,5.1,13,10.2,19.8,15.1c1.6,1.2,2,2.2,2,4
		C87.1,123.9,87.1,142.3,87.1,142.3z M188.8,133.9c1.2,0.1,2.5-0.5,3.4,1.3c-1.3,0-2.5,0.1-3.6,0c-0.2-0.1-0.5-0.6-0.7-0.8
		C188.2,134.3,188.4,133.9,188.8,133.9z M188.1,130.3c0.1,0.2,0.2,0.5,0.2,0.7c-0.2,0.7-0.3,1.4-0.6,2c-0.6-0.3-1-0.7-1.5-1
		c-0.8-0.8-1.7-1.6-2.6-2.5C185.6,128.6,187.1,128.9,188.1,130.3z M183.4,134.4c0.1,0.2,0.1,0.5,0.2,0.8h-4.7
		c-0.5,0-0.8-0.3-1.2-0.6c0.1-0.5,0.2-0.9,0.6-1.2C179.6,132.6,182.6,133.2,183.4,134.4z M177.8,128.4c0.9,0.8,1.4,3,0.6,4
		c-0.2,0.2-0.6,0.3-0.8,0.3h-1c-0.8,0-1.9-0.2-2.3,0.1c-0.5,0.3-0.3,1.4-0.5,2.2c-4.9,0-9.8,0-14.5,0.2c-0.1-1.2,0.8-1.3,1.5-1.6
		c1.9-0.9,1.9-0.9,0.9-2.6c-0.8-1.5,0.1-3.1,1.9-3.3c2.1-0.2,3.1,0.7,3.4,3c0.1,0.6,0.2,0.9,0.9,0.8c1.4-0.1,2.8-0.1,4.2-0.2
		c0.2,0,0.6-0.5,0.6-0.8C172.5,127.6,176.3,127.2,177.8,128.4z M100.9,16.7c0.7-1.3,1.2-2.3,1.4-3.7c1-5.4,4-9.1,10.1-9.1h14.5
		c5.2-0.1,8.5,3.5,9.3,7.7c0.5,2,1,4,2.2,5.8c1.2,1.6,2,3.4,3,5.1c0.1,0.2,0.2,0.7,0.3,1.2H96.8C98.4,21,99.5,18.9,100.9,16.7z
		 M83.7,32.7c-2,0-2.8-0.7-2.8-2.2c-0.1-2,0.7-3,2.7-3h9.8c9.8,0.1,19.3,0.1,29.1,0.1c11,0,22.1-0.1,33.1-0.1c0.9,0,1.9-0.1,2.1,1
		c0.5,1.4,0.8,2.7-0.2,3.8c-0.5,0.5-1.4,0.6-2,0.6h-35.9C107.5,32.8,95.6,32.8,83.7,32.7z M102.9,60.8c3.1-1.5,5.2-4,6.8-7
		c0.9,1.3,1.5,2.3,2.2,3.3c2.7,3.1,6.1,5.5,10.4,5.1c2-0.2,2.3-0.7,2-2.6c-0.7-4-3.1-6.5-6.3-8.6c-2.2-1.5-4.7-2.1-7.3-1.9
		c-1,0.1-2.1,0-3.3-0.1c-2.2-0.1-4.2,0.7-6.1,1.9c-0.5,0.2-1,0.7-1.7,1.2V36.8c0.6,0,1.2-0.1,1.7-0.1c6.2,0,12.2-0.1,18.4,0
		c0.8,0,1.7,0.5,2.2,0.9c1.9,1.5,3.5,3,5.4,4.5c0.7,0.5,1.4,0.3,2-0.3c0.9-1,2-1.3,3.1-0.6c1.3,0.8,1.5,2,0.6,3.4
		c-0.9,1.6-0.9,1.5,0.5,2.6c1.6,1.3,3.1,2.6,4.8,3.8c1.4,1.2,0.9,2.6,0.7,4c-0.5,2.6-2,4.5-3.7,6.3c-0.5,0.5-0.8,1.3-0.8,2
		c-0.1,2.8,0,5.7,0,8.5c0,0.3-0.1,0.7-0.1,1.2h-17.9c-1,0-1.3-0.3-1.3-1.3c0.1-2.1,0.1-4.2,0.1-6.3c0-0.5-0.1-1-0.1-1.6
		C111.1,63.4,106.6,63.9,102.9,60.8z M99.4,84.8c1-2.5,2.8-3.6,5.6-3.5c1.2,0,1.6-0.3,1.5-1.6c-0.1-1-0.1-2-0.2-3.1
		c0.9-0.1,1.9-0.2,2.7-0.2c2.1,0.1,4.3,0,6.4,0.3c0.9,0.1,1.9,1,2.6,1.6c0,0-0.1,0.6-0.3,0.8c-0.6,0.6-1.4,0.9-2,1.5
		c-0.1,0.2-0.3,0.7-0.2,0.9c0.3,0.7,0.8,1.4,1.3,2c0.7,0.8,1.4,0.1,2-0.2c0.9-0.6,1.7-1.3,2.5-1.9c0.7-0.5,1.2-0.6,1.9,0
		c0.8,0.8,1.7,1.4,2.6,2c0.8,0.6,1.4,0.7,2-0.2c0.1-0.2,0.3-0.3,0.5-0.6c1-1.5,0.9-1.9-0.6-2.7c-0.6-0.3-1.2-0.7-1.9-1.2
		c1.3-1.7,2.7-2.2,4.5-2.5c2.1,0.1,4.4,0.2,6.5,0.2c2.3,0.1,4.8,0,7.3,0.3c-0.6,0.6-0.9,1.3-1.5,1.6c-3,1.9-4.9,4.5-5.1,8.2
		c-0.1,2.9,0,5.8,0,8.6H98.9C99,91.4,98,88,99.4,84.8z M91.1,88.6c0.3-2.6,2.3-4.3,4.7-5.6c-1.3,3.8-0.8,7.8-0.7,11.5
		c0,0.5-0.5,0.9-0.8,1.2c-1.2,0.6-2.2,1.2-3.3,1.6C91,94.4,90.8,91.5,91.1,88.6z M151.8,168.9c0,5-2.6,7.2-6.1,8
		c-1.7,0.5-3.5,0.3-5.4,0.3H99.8c-1.5,0-2.8,0-4.3-0.1c-1.9-0.1-3.8-1.7-4.3-3.5c-0.3-1.4-0.6-2.7-0.6-4.1v-31.6
		c0-10.5,0.1-21.1,0.1-31.8c-0.1-4.3,3.5-7.3,7.3-7.3c9.8-0.1,19.5-0.1,29.4-0.1c2.5,0,5,0,7.5,0.1c1.3,0.1,2.5,0.5,3.6,0.9
		c2.5,1.3,3.7,3.1,3.6,6.1c-0.1,4.4-0.1,9,0.2,13.3c0.2,3.8,2,7.3,4.7,10.1c1.3,1.5,2.7,2.7,3.8,4.2c0.6,0.8,1,2,1,2.8V168.9
		L151.8,168.9L151.8,168.9z M148.6,125.2c-2-2.2-2.6-5-2.6-7.8v-12.1c0-3.3-1.2-5.9-4-7.7c-0.8-0.6-1.2-1.3-1.2-2.2
		c0.2-2.9,0.1-6.1,0.3-9c0.1-2.6,3.1-6.1,7-5.1c2,0.5,3.8,0.6,5.7,1.4c2.5,1.2,4.2,2.9,5.1,5.6c1.2,3.1,2.3,6.3,3.8,9.4
		c3.6,7.9,7.5,15.6,11.1,23.5c0.3,0.8,0.7,1.7,0.9,2.2c-1.7,1-3.1,2-4.4,3c-0.2,0.1-0.8,0.1-1.2-0.1c-0.6-0.5-1-1.2-1.7-1.6
		c-3.3-2-7.9-0.6-9.5,2.9c-0.2,0.6-0.5,1.2-0.5,1.7c-0.1,1.4-0.8,2.3-1.6,3.4c-0.1,0.1-0.8,0.1-0.9,0
		C152.9,130.3,150.8,127.7,148.6,125.2z M192.8,151.5c-0.5,7.8-0.8,15.5-1.3,23.2c-0.1,1.9-0.3,2.2-2.2,2.3
		c-3.3,0.2-6.5,0.2-9.8,0.2h-22.1c-0.6,0-1.2-0.1-1.7,0c-1,0.1-1.2-0.2-0.8-1c1.7-3.4,1.5-7.1,1.5-10.6V148c0-0.3,0.1-0.6,0.1-0.8
		c12,0,24.1,0,36.2-0.1C192.8,148.6,192.9,150.1,192.8,151.5z M196.8,141.8c0,0.3-0.2,0.7-0.3,1.3h-39.7v-4c0.6-0.1,1.3-0.2,2-0.2
		c12,0.1,24,0.1,35.9,0.1C197,138.9,196.8,139.4,196.8,141.8z M142.7,139.4c0-1.7-0.1-2-1.9-2h-21.4c-4.1,0-8.3,0-12.2,0.1h-9.8
		c-0.9,0-1.4,0.2-1.4,1.3c-0.1,2.2-0.3,4.4-0.2,6.6c0.1,2.2,0.3,4.5,0.9,6.8c0.6,2.6,2,4.9,3.6,6.9c3.4,4.2,7.8,6.5,13.2,6.8
		c4,0.1,7.9,0.1,11.8,0c5.4-0.2,9.8-2.7,12.9-6.8c3.4-4.3,4.7-9.3,4.5-14.5C142.9,142.9,142.7,141.1,142.7,139.4z M139.2,145.7
		c-0.1,4.4-1.4,8.5-4.4,11.7c-2.6,2.8-5.8,4.4-9.5,4.7c-4,0.2-8,0.2-11.9,0c-4.1-0.2-7.5-2.1-10-5.4c-2.9-3.5-3.8-7.5-3.7-11.8v-3.6
		h39.5L139.2,145.7L139.2,145.7z M143,144.6c-0.1-1.9-0.2-3.5-0.2-5.2s-0.1-2-1.9-2h-21.4c-4.1,0-8.3,0-12.2,0.1h-9.8
		c-0.9,0-1.4,0.2-1.4,1.3c-0.1,2.2-0.3,4.4-0.2,6.6s0.3,4.5,0.9,6.8c0.6,2.6,2,4.9,3.6,6.9c3.4,4.2,7.8,6.5,13.2,6.8
		c4,0.1,7.9,0.1,11.8,0c5.4-0.2,9.8-2.7,12.9-6.8C141.8,155,143.1,150,143,144.6z M139.2,145.7c-0.1,4.4-1.4,8.5-4.4,11.7
		c-2.6,2.8-5.8,4.4-9.5,4.7c-4,0.2-8,0.2-11.9,0c-4.1-0.2-7.5-2.1-10-5.4c-2.9-3.5-3.8-7.5-3.7-11.8v-3.6h39.5L139.2,145.7
		L139.2,145.7z M143,144.6c-0.1-1.9-0.2-3.5-0.2-5.2s-0.1-2-1.9-2h-21.4c-4.1,0-8.3,0-12.2,0.1h-9.8c-0.9,0-1.4,0.2-1.4,1.3
		c-0.1,2.2-0.3,4.4-0.2,6.6s0.3,4.5,0.9,6.8c0.6,2.6,2,4.9,3.6,6.9c3.4,4.2,7.8,6.5,13.2,6.8c4,0.1,7.9,0.1,11.8,0
		c5.4-0.2,9.8-2.7,12.9-6.8C141.8,155,143.1,150,143,144.6z M139.2,145.7c-0.1,4.4-1.4,8.5-4.4,11.7c-2.6,2.8-5.8,4.4-9.5,4.7
		c-4,0.2-8,0.2-11.9,0c-4.1-0.2-7.5-2.1-10-5.4c-2.9-3.5-3.8-7.5-3.7-11.8v-3.6h39.5L139.2,145.7L139.2,145.7z M143,144.6
		c-0.1-1.9-0.2-3.5-0.2-5.2s-0.1-2-1.9-2h-21.4c-4.1,0-8.3,0-12.2,0.1h-9.8c-0.9,0-1.4,0.2-1.4,1.3c-0.1,2.2-0.3,4.4-0.2,6.6
		s0.3,4.5,0.9,6.8c0.6,2.6,2,4.9,3.6,6.9c3.4,4.2,7.8,6.5,13.2,6.8c4,0.1,7.9,0.1,11.8,0c5.4-0.2,9.8-2.7,12.9-6.8
		C141.8,155,143.1,150,143,144.6z M139.2,145.7c-0.1,4.4-1.4,8.5-4.4,11.7c-2.6,2.8-5.8,4.4-9.5,4.7c-4,0.2-8,0.2-11.9,0
		c-4.1-0.2-7.5-2.1-10-5.4c-2.9-3.5-3.8-7.5-3.7-11.8v-3.6h39.5L139.2,145.7L139.2,145.7z M143,144.6c-0.1-1.9-0.2-3.5-0.2-5.2
		s-0.1-2-1.9-2h-21.4c-4.1,0-8.3,0-12.2,0.1h-9.8c-0.9,0-1.4,0.2-1.4,1.3c-0.1,2.2-0.3,4.4-0.2,6.6s0.3,4.5,0.9,6.8
		c0.6,2.6,2,4.9,3.6,6.9c3.4,4.2,7.8,6.5,13.2,6.8c4,0.1,7.9,0.1,11.8,0c5.4-0.2,9.8-2.7,12.9-6.8C141.8,155,143.1,150,143,144.6z
		 M139.2,145.7c-0.1,4.4-1.4,8.5-4.4,11.7c-2.6,2.8-5.8,4.4-9.5,4.7c-4,0.2-8,0.2-11.9,0c-4.1-0.2-7.5-2.1-10-5.4
		c-2.9-3.5-3.8-7.5-3.7-11.8v-3.6h39.5L139.2,145.7L139.2,145.7z M143,144.6c-0.1-1.9-0.2-3.5-0.2-5.2s-0.1-2-1.9-2h-21.4
		c-4.1,0-8.3,0-12.2,0.1h-9.8c-0.9,0-1.4,0.2-1.4,1.3c-0.1,2.2-0.3,4.4-0.2,6.6s0.3,4.5,0.9,6.8c0.6,2.6,2,4.9,3.6,6.9
		c3.4,4.2,7.8,6.5,13.2,6.8c4,0.1,7.9,0.1,11.8,0c5.4-0.2,9.8-2.7,12.9-6.8C141.8,155,143.1,150,143,144.6z M139.2,145.7
		c-0.1,4.4-1.4,8.5-4.4,11.7c-2.6,2.8-5.8,4.4-9.5,4.7c-4,0.2-8,0.2-11.9,0c-4.1-0.2-7.5-2.1-10-5.4c-2.9-3.5-3.8-7.5-3.7-11.8v-3.6
		h39.5L139.2,145.7L139.2,145.7z M143,144.6c-0.1-1.9-0.2-3.5-0.2-5.2s-0.1-2-1.9-2h-21.4c-4.1,0-8.3,0-12.2,0.1h-9.8
		c-0.9,0-1.4,0.2-1.4,1.3c-0.1,2.2-0.3,4.4-0.2,6.6s0.3,4.5,0.9,6.8c0.6,2.6,2,4.9,3.6,6.9c3.4,4.2,7.8,6.5,13.2,6.8
		c4,0.1,7.9,0.1,11.8,0c5.4-0.2,9.8-2.7,12.9-6.8C141.8,155,143.1,150,143,144.6z M139.2,145.7c-0.1,4.4-1.4,8.5-4.4,11.7
		c-2.6,2.8-5.8,4.4-9.5,4.7c-4,0.2-8,0.2-11.9,0c-4.1-0.2-7.5-2.1-10-5.4c-2.9-3.5-3.8-7.5-3.7-11.8v-3.6h39.5L139.2,145.7
		L139.2,145.7z M143,144.6c-0.1-1.9-0.2-3.5-0.2-5.2s-0.1-2-1.9-2h-21.4c-4.1,0-8.3,0-12.2,0.1h-9.8c-0.9,0-1.4,0.2-1.4,1.3
		c-0.1,2.2-0.3,4.4-0.2,6.6s0.3,4.5,0.9,6.8c0.6,2.6,2,4.9,3.6,6.9c3.4,4.2,7.8,6.5,13.2,6.8c4,0.1,7.9,0.1,11.8,0
		c5.4-0.2,9.8-2.7,12.9-6.8C141.8,155,143.1,150,143,144.6z M139.2,145.7c-0.1,4.4-1.4,8.5-4.4,11.7c-2.6,2.8-5.8,4.4-9.5,4.7
		c-4,0.2-8,0.2-11.9,0c-4.1-0.2-7.5-2.1-10-5.4c-2.9-3.5-3.8-7.5-3.7-11.8v-3.6h39.5L139.2,145.7L139.2,145.7z M143,144.6
		c-0.1-1.9-0.2-3.5-0.2-5.2s-0.1-2-1.9-2h-21.4c-4.1,0-8.3,0-12.2,0.1h-9.8c-0.9,0-1.4,0.2-1.4,1.3c-0.1,2.2-0.3,4.4-0.2,6.6
		s0.3,4.5,0.9,6.8c0.6,2.6,2,4.9,3.6,6.9c3.4,4.2,7.8,6.5,13.2,6.8c4,0.1,7.9,0.1,11.8,0c5.4-0.2,9.8-2.7,12.9-6.8
		C141.8,155,143.1,150,143,144.6z M139.2,145.7c-0.1,4.4-1.4,8.5-4.4,11.7c-2.6,2.8-5.8,4.4-9.5,4.7c-4,0.2-8,0.2-11.9,0
		c-4.1-0.2-7.5-2.1-10-5.4c-2.9-3.5-3.8-7.5-3.7-11.8v-3.6h39.5L139.2,145.7L139.2,145.7z M143,144.6c-0.1-1.9-0.2-3.5-0.2-5.2
		s-0.1-2-1.9-2h-21.4c-4.1,0-8.3,0-12.2,0.1h-9.8c-0.9,0-1.4,0.2-1.4,1.3c-0.1,2.2-0.3,4.4-0.2,6.6s0.3,4.5,0.9,6.8
		c0.6,2.6,2,4.9,3.6,6.9c3.4,4.2,7.8,6.5,13.2,6.8c4,0.1,7.9,0.1,11.8,0c5.4-0.2,9.8-2.7,12.9-6.8C141.8,155,143.1,150,143,144.6z
		 M139.2,145.7c-0.1,4.4-1.4,8.5-4.4,11.7c-2.6,2.8-5.8,4.4-9.5,4.7c-4,0.2-8,0.2-11.9,0c-4.1-0.2-7.5-2.1-10-5.4
		c-2.9-3.5-3.8-7.5-3.7-11.8v-3.6h39.5L139.2,145.7L139.2,145.7z M143,144.6c-0.1-1.9-0.2-3.5-0.2-5.2s-0.1-2-1.9-2h-21.4
		c-4.1,0-8.3,0-12.2,0.1h-9.8c-0.9,0-1.4,0.2-1.4,1.3c-0.1,2.2-0.3,4.4-0.2,6.6s0.3,4.5,0.9,6.8c0.6,2.6,2,4.9,3.6,6.9
		c3.4,4.2,7.8,6.5,13.2,6.8c4,0.1,7.9,0.1,11.8,0c5.4-0.2,9.8-2.7,12.9-6.8C141.8,155,143.1,150,143,144.6z M139.2,145.7
		c-0.1,4.4-1.4,8.5-4.4,11.7c-2.6,2.8-5.8,4.4-9.5,4.7c-4,0.2-8,0.2-11.9,0c-4.1-0.2-7.5-2.1-10-5.4c-2.9-3.5-3.8-7.5-3.7-11.8v-3.6
		h39.5L139.2,145.7L139.2,145.7z M143,144.6c-0.1-1.9-0.2-3.5-0.2-5.2s-0.1-2-1.9-2h-21.4c-4.1,0-8.3,0-12.2,0.1h-9.8
		c-0.9,0-1.4,0.2-1.4,1.3c-0.1,2.2-0.3,4.4-0.2,6.6s0.3,4.5,0.9,6.8c0.6,2.6,2,4.9,3.6,6.9c3.4,4.2,7.8,6.5,13.2,6.8
		c4,0.1,7.9,0.1,11.8,0c5.4-0.2,9.8-2.7,12.9-6.8C141.8,155,143.1,150,143,144.6z M139.2,145.7c-0.1,4.4-1.4,8.5-4.4,11.7
		c-2.6,2.8-5.8,4.4-9.5,4.7c-4,0.2-8,0.2-11.9,0c-4.1-0.2-7.5-2.1-10-5.4c-2.9-3.5-3.8-7.5-3.7-11.8v-3.6h39.5L139.2,145.7
		L139.2,145.7z M143,144.6c-0.1-1.9-0.2-3.5-0.2-5.2s-0.1-2-1.9-2h-21.4c-4.1,0-8.3,0-12.2,0.1h-9.8c-0.9,0-1.4,0.2-1.4,1.3
		c-0.1,2.2-0.3,4.4-0.2,6.6s0.3,4.5,0.9,6.8c0.6,2.6,2,4.9,3.6,6.9c3.4,4.2,7.8,6.5,13.2,6.8c4,0.1,7.9,0.1,11.8,0
		c5.4-0.2,9.8-2.7,12.9-6.8C141.8,155,143.1,150,143,144.6z M139.2,145.7c-0.1,4.4-1.4,8.5-4.4,11.7c-2.6,2.8-5.8,4.4-9.5,4.7
		c-4,0.2-8,0.2-11.9,0c-4.1-0.2-7.5-2.1-10-5.4c-2.9-3.5-3.8-7.5-3.7-11.8v-3.6h39.5L139.2,145.7L139.2,145.7z M143,144.6
		c-0.1-1.9-0.2-3.5-0.2-5.2s-0.1-2-1.9-2h-21.4c-4.1,0-8.3,0-12.2,0.1h-9.8c-0.9,0-1.4,0.2-1.4,1.3c-0.1,2.2-0.3,4.4-0.2,6.6
		s0.3,4.5,0.9,6.8c0.6,2.6,2,4.9,3.6,6.9c3.4,4.2,7.8,6.5,13.2,6.8c4,0.1,7.9,0.1,11.8,0c5.4-0.2,9.8-2.7,12.9-6.8
		C141.8,155,143.1,150,143,144.6z M139.2,145.7c-0.1,4.4-1.4,8.5-4.4,11.7c-2.6,2.8-5.8,4.4-9.5,4.7c-4,0.2-8,0.2-11.9,0
		c-4.1-0.2-7.5-2.1-10-5.4c-2.9-3.5-3.8-7.5-3.7-11.8v-3.6h39.5L139.2,145.7L139.2,145.7z M143,144.6c-0.1-1.9-0.2-3.5-0.2-5.2
		s-0.1-2-1.9-2h-21.4c-4.1,0-8.3,0-12.2,0.1h-9.8c-0.9,0-1.4,0.2-1.4,1.3c-0.1,2.2-0.3,4.4-0.2,6.6s0.3,4.5,0.9,6.8
		c0.6,2.6,2,4.9,3.6,6.9c3.4,4.2,7.8,6.5,13.2,6.8c4,0.1,7.9,0.1,11.8,0c5.4-0.2,9.8-2.7,12.9-6.8C141.8,155,143.1,150,143,144.6z
		 M139.2,145.7c-0.1,4.4-1.4,8.5-4.4,11.7c-2.6,2.8-5.8,4.4-9.5,4.7c-4,0.2-8,0.2-11.9,0c-4.1-0.2-7.5-2.1-10-5.4
		c-2.9-3.5-3.8-7.5-3.7-11.8v-3.6h39.5L139.2,145.7L139.2,145.7z"/>
	<path class="st0" d="M143,144.6c-0.1-1.9-0.2-3.5-0.2-5.2s-0.1-2-1.9-2h-21.4c-4.1,0-8.3,0-12.2,0.1h-9.8c-0.9,0-1.4,0.2-1.4,1.3
		c-0.1,2.2-0.3,4.4-0.2,6.6s0.3,4.5,0.9,6.8c0.6,2.6,2,4.9,3.6,6.9c3.4,4.2,7.8,6.5,13.2,6.8c4,0.1,7.9,0.1,11.8,0
		c5.4-0.2,9.8-2.7,12.9-6.8C141.8,155,143.1,150,143,144.6z M139.2,145.7c-0.1,4.4-1.4,8.5-4.4,11.7c-2.6,2.8-5.8,4.4-9.5,4.7
		c-4,0.2-8,0.2-11.9,0c-4.1-0.2-7.5-2.1-10-5.4c-2.9-3.5-3.8-7.5-3.7-11.8v-3.6h39.5L139.2,145.7L139.2,145.7z"/>
	<path class="st0" d="M132.7,36.9c0.6,0.3,1.3,0.7,1.9,1.2c2,1.4,3.5,2.9,3.1,5.5c-0.2,1.5,0.1,2.3,1.2,3.1c0.5,0.3,0.9,0.8,1.3,1.2
		c0.7,0.7,1,0.5,1.6-0.2c2.1-2.8,3-6.1,3.4-9.4c0.1-0.7,0-1.2-0.9-1.2C140.3,36.9,136.5,36.9,132.7,36.9z"/>
	<path class="st0" d="M119.8,58c-0.3-1.9-4.1-4.9-6.4-5.2C115,55.4,117,57,119.8,58z"/>
	<path class="st0" d="M105.7,53c-0.1-0.1-0.2-0.2-0.3-0.3c-0.9,0.8-1.9,1.5-2.7,2.2c-2.1,1.7-2.1,1.7-2,2.6
		C102.7,56.4,104.4,55.1,105.7,53z"/>
	<path class="st0" d="M30,47.6c0.1-1.7,0.5-3.1,1.7-4.3c0.8-0.8,0.8-1.4,0.1-2.1c-0.6-0.7-0.9-1.4-1.3-2.1c-0.8-1.9-0.2-3.5,0.9-4.9
		c0.9-1.2,2-2.1,2.8-3.1c0.8-0.8,2-0.9,2.6-0.2c0.8,0.7,0.9,2,0.1,2.8c-0.9,1.2-1.7,2.2-2.7,3.3c-0.7,0.7-0.3,1,0,1.5
		s0.8,0.9,1.2,1.5c1.5,2.2,1,4-1,6.4c-0.8,0.9-0.7,1.5,0.1,2.2c1,1,2,2.1,2.8,3.3c0.7,0.9,0.5,1.9-0.3,2.5c-0.8,0.8-1.9,0.9-2.3,0.1
		c-1.6-1.7-2.9-3.6-4.3-5.6C30,48.5,30,47.9,30,47.6z"/>
	<path class="st0" d="M27.2,30.1c0.3,0.3,1.2,0.6,1.3,1c0.2,0.6,0.2,1.6-0.1,2c-0.7,1.2-1.7,2-2.5,2.9c-1.2,1.4-1.2,1.4,0,2.7
		c1.4,1.5,1.9,3.1,1,5.1c-0.3,0.7-0.8,1.4-1.3,2c-0.9,1.2-0.9,1.6,0.1,2.6c0.8,0.9,1.6,1.7,2.2,2.6c0.9,1,1,2.5,0.1,3.1
		c-0.8,0.7-2,0.6-2.9-0.6c-1-1.2-2-2.2-2.9-3.5c-1.7-2.3-1.5-4.9,0.5-6.9c1-1,0.6-1.9-0.1-2.6c-1.4-1.5-1.9-3.3-1.2-5.1
		c0.9-2.2,2.6-3.7,4.4-5.4C26.3,30.4,26.6,30.4,27.2,30.1z"/>
	<path class="st0" d="M38,47.4c0.1-1.6,0.7-2.9,1.9-4c0.9-0.8,0.7-1.5,0.1-2.1c-0.6-0.7-1-1.3-1.5-2c-0.8-1.6-0.5-3.1,0.5-4.4
		c1-1.4,2.2-2.6,3.5-3.7c1.4-1.3,2.8-0.9,3.1,0.7c0.1,0.6-0.1,1.4-0.5,1.9c-0.8,1-1.6,2-2.5,3c-0.8,0.8-0.6,1.5,0,2.1
		c1.2,1.3,2,2.7,1.6,4.4c-0.3,1.3-1,2.3-1.9,3.5c-0.6,0.8-0.3,1.3,0.1,1.9c0.7,0.8,1.5,1.7,2.1,2.5c0.3,0.3,0.6,0.8,0.8,1.3
		c0.5,0.9,0.3,1.7-0.5,2.2c-0.9,0.7-2,0.5-2.6-0.2c-1.4-1.5-2.5-3-3.7-4.8C38.3,48.9,38.3,48.1,38,47.4z"/>
	<path class="st0" d="M143,144.6c-0.1-1.9-0.2-3.5-0.2-5.2s-0.1-2-1.9-2h-21.4c-4.1,0-8.3,0-12.2,0.1h-9.8c-0.9,0-1.4,0.2-1.4,1.3
		c-0.1,2.2-0.3,4.4-0.2,6.6s0.3,4.5,0.9,6.8c0.6,2.6,2,4.9,3.6,6.9c3.4,4.2,7.8,6.5,13.2,6.8c4,0.1,7.9,0.1,11.8,0
		c5.4-0.2,9.8-2.7,12.9-6.8C141.8,155,143.1,150,143,144.6z M139.2,145.7c-0.1,4.4-1.4,8.5-4.4,11.7c-2.6,2.8-5.8,4.4-9.5,4.7
		c-4,0.2-8,0.2-11.9,0c-4.1-0.2-7.5-2.1-10-5.4c-2.9-3.5-3.8-7.5-3.7-11.8v-3.6h39.5L139.2,145.7L139.2,145.7z"/>
</g>
<g>
	<g>
		<path class="st1" d="M324.9,85.6c0,12.9-10.5,20.4-30.6,20.4h-40.1V31.8h38c19.5,0,29,8,29,19.4c0,7.1-3.6,12.9-10,16.1
			C319.6,70.3,324.9,76.6,324.9,85.6z M275,46.9v14.3h14.4c7,0,10.5-2.4,10.5-7.1c0-4.6-3.6-7.1-10.5-7.1H275V46.9z M303.7,83.4
			c0-5.1-3.7-7.5-11-7.5H275V91h17.7C299.9,90.9,303.7,88.5,303.7,83.4z"/>
		<path class="st1" d="M378.9,86.3h-11.4V106h-21.1V31.8h34c20.2,0,32.9,10.5,32.9,27.5c0,10.9-5.3,19-14.6,23.4l16,23.3h-22.4
			L378.9,86.3z M379.1,48.4h-11.7v21.7h11.7c8.7,0,13.1-4.1,13.1-10.9C392.1,52.3,387.7,48.4,379.1,48.4z"/>
		<path class="st1" d="M495.2,89.8v16.3h-59.6V32h58.2v16.3h-37.5v12.6h32.9v15.6h-32.9V90h38.9V89.8z"/>
		<path class="st1" d="M567.1,91.5h-31.4L530,106h-21.6l32.8-74.2h20.7l32.9,74.2h-21.9L567.1,91.5z M561,76.1l-9.5-23.8L542,76.1
			H561z"/>
		<path class="st1" d="M640,79.1l-7.8,8.3V106h-20.7V31.8h20.7v30.9l28.7-30.9H684l-30.4,32.9l31.9,41.4h-24.3L640,79.1z"/>
		<path class="st1" d="M701.8,31.8h21.1V106h-21.1V31.8z"/>
		<path class="st1" d="M818.9,31.8V106h-17.3l-32.8-39.6V106h-20.5V31.8h17.3l32.8,39.6V31.8H818.9z"/>
		<path class="st1" d="M894.1,67.3h18.5V98c-8.7,6.1-20.4,9.5-31.2,9.5c-23.6,0-40.9-16-40.9-38.5s17.3-38.5,41.4-38.5
			c13.9,0,25.1,4.8,32.4,13.6l-13.4,12.1c-5.1-5.6-10.9-8.3-18-8.3c-12.7,0-21.2,8.3-21.2,21.2c0,12.6,8.5,21.2,21.1,21.2
			c3.9,0,7.6-0.7,11.4-2.4L894.1,67.3L894.1,67.3z"/>
		<path class="st1" d="M1027.9,67.3h18.5V98c-8.7,6.1-20.4,9.5-31.2,9.5c-23.6,0-40.9-16-40.9-38.5s17.3-38.5,41.4-38.5
			c13.9,0,25.1,4.8,32.4,13.6l-13.4,12.1c-5.1-5.6-10.9-8.3-18-8.3c-12.7,0-21.2,8.3-21.2,21.2c0,12.6,8.5,21.2,21.1,21.2
			c3.9,0,7.6-0.7,11.4-2.4L1027.9,67.3L1027.9,67.3z"/>
		<path class="st1" d="M1102.7,86.3h-11.4V106h-21.1V31.8h34c20.2,0,32.9,10.5,32.9,27.5c0,10.9-5.3,19-14.6,23.4l16,23.3h-22.4
			L1102.7,86.3z M1103.1,48.4h-11.7v21.7h11.7c8.7,0,13.1-4.1,13.1-10.9C1116,52.3,1111.7,48.4,1103.1,48.4z"/>
		<path class="st1" d="M1155.5,69c0-22.2,17.5-38.5,41.3-38.5s41.3,16.3,41.3,38.5s-17.5,38.5-41.3,38.5
			C1173.2,107.5,1155.5,91.2,1155.5,69z M1217,69c0-12.9-8.8-21.2-20-21.2s-20,8.3-20,21.2s8.8,21.2,20,21.2S1217,81.7,1217,69z"/>
		<path class="st1" d="M1259.1,73V32h21.1v40.6c0,12.7,5.3,17.8,14.1,17.8c8.7,0,13.9-5.1,13.9-17.8V32h20.7v41
			c0,22.2-12.9,34.6-35,34.6C1272,107.5,1259.1,95.1,1259.1,73z"/>
		<path class="st1" d="M1424.4,31.8V106h-17.3l-32.8-39.6V106h-20.5V31.8h17.3l32.8,39.6V31.8H1424.4z"/>
		<path class="st1" d="M1449.7,31.8h35.1c24.6,0,41.4,14.3,41.4,37.2c0,22.7-16.8,37.2-41.4,37.2h-35.1V31.8z M1484,89.3
			c12.6,0,21.1-7.5,21.1-20.4s-8.5-20.4-21.1-20.4h-13.2v40.7h13.2V89.3z"/>
		<path class="st1" d="M1542.8,99.3l7-15.4c6.6,4.4,16,7.3,24.4,7.3c8.7,0,12.1-2.4,12.1-6.1c0-11.7-42.3-3.2-42.3-30.7
			c0-13.2,10.9-24.1,32.9-24.1c9.7,0,19.7,2.2,27,6.5l-6.5,15.6c-7.1-3.7-14.1-5.8-20.5-5.8c-8.8,0-12.1,2.9-12.1,6.6
			c0,11.4,42.1,2.9,42.1,30.2c0,12.9-10.9,23.9-32.9,23.9C1561.9,107.5,1549.9,104.3,1542.8,99.3z"/>
	</g>
	<g>
		<path class="st1" d="M283.1,156.6c0,8.1-6.1,13.2-16,13.2h-8.3v10.7h-7v-37.3h15.3C277,143.3,283.1,148.2,283.1,156.6z
			 M276.2,156.6c0-4.8-3.2-7.5-9.2-7.5h-8.1v14.8h8.1C273,164,276.2,161.1,276.2,156.6z"/>
		<path class="st1" d="M319.8,180.7l-7.6-10.9c-0.5,0-1,0-1.4,0h-8.5v10.9h-7v-37.3h15.3c9.8,0,16,5.1,16,13.2c0,5.6-2.9,9.8-8,11.7
			l8.7,12.2h-7.5V180.7z M310.3,149.1h-8.1V164h8.1c6.1,0,9.2-2.7,9.2-7.5C319.6,151.8,316.4,149.1,310.3,149.1z"/>
		<path class="st1" d="M367.7,174.7v5.8h-28v-37.3H367v5.8h-20.4v9.7h18v5.8h-18v10.4h21.1V174.7z"/>
		<path class="st1" d="M415,180.7v-24.8l-12.2,20.5h-3.1l-12.2-20.2v24.4h-6.6v-37.3h5.8l14.8,24.8l14.6-24.8h5.8v37.3H415V180.7z"
			/>
		<path class="st1" d="M436.9,143.3h7v37.3h-7V143.3z"/>
		<path class="st1" d="M459,164.4v-21.1h7V164c0,7.6,3.4,11,9.5,11c5.9,0,9.5-3.2,9.5-11v-20.7h6.8v21.1c0,10.9-6.1,16.8-16.3,16.8
			C465.1,181.2,459,175.2,459,164.4z"/>
		<path class="st1" d="M541,180.7v-24.8l-12.2,20.5h-3.1l-12.2-20.2v24.4h-6.8v-37.3h5.8l14.8,24.8l14.6-24.8h5.8v37.3H541V180.7z"
			/>
		<path class="st1" d="M582.9,143.3h7v31.4h19.5v5.9h-26.5V143.3z"/>
		<path class="st1" d="M616.9,162c0-11,8.5-19.2,20-19.2s20,8.1,20,19.2s-8.5,19.2-20,19.2S616.9,173,616.9,162z M650,162
			c0-7.6-5.6-13.1-13.1-13.1s-13.1,5.4-13.1,13.1s5.6,13.1,13.1,13.1S650,169.5,650,162z"/>
		<path class="st1" d="M667.1,162c0-11.2,8.5-19.2,20-19.2c6.1,0,11.4,2.2,14.8,6.3l-4.4,4.2c-2.7-2.9-6.1-4.4-10-4.4
			c-7.8,0-13.4,5.4-13.4,13.1s5.6,13.1,13.4,13.1c3.9,0,7.3-1.4,10-4.4l4.4,4.2c-3.4,4.1-8.7,6.3-14.8,6.3
			C675.6,181.2,667.1,173,667.1,162z"/>
		<path class="st1" d="M737.2,172h-18.7l-3.7,8.7h-7.1l16.8-37.3h6.8l16.8,37.3H741L737.2,172z M734.9,166.6l-7-16.3l-7,16.3H734.9z
			"/>
		<path class="st1" d="M758.3,143.3h7v31.4h19.5v5.9h-26.5V143.3z"/>
		<path class="st1" d="M813,162c0-11.2,8.5-19.2,20-19.2c6.1,0,11.4,2.2,14.8,6.3l-4.4,4.2c-2.7-2.9-6.1-4.4-10-4.4
			c-7.8,0-13.4,5.4-13.4,13.1s5.6,13.1,13.4,13.1c3.9,0,7.3-1.4,10-4.4l4.4,4.2c-3.4,4.1-8.7,6.3-14.8,6.3
			C821.4,181.2,813,173,813,162z"/>
		<path class="st1" d="M856.2,162c0-11,8.5-19.2,20-19.2s20,8.1,20,19.2s-8.5,19.2-20,19.2S856.2,173,856.2,162z M889.4,162
			c0-7.6-5.6-13.1-13.1-13.1s-13.1,5.4-13.1,13.1s5.6,13.1,13.1,13.1C883.8,175.1,889.4,169.5,889.4,162z"/>
		<path class="st1" d="M916,149.1v11.4h18v5.9h-18v14.3h-7v-37.3h27.3v5.8L916,149.1L916,149.1z"/>
		<path class="st1" d="M955.4,149.1v11.4h18v5.9h-18v14.3h-7v-37.3h27.3v5.8L955.4,149.1L955.4,149.1z"/>
		<path class="st1" d="M1015.7,174.7v5.8h-28v-37.3h27.2v5.8h-20.4v9.7h18.2v5.8h-18v10.4h21V174.7z"/>
		<path class="st1" d="M1056.7,174.7v5.8h-28v-37.3h27.3v5.8h-20.4v9.7h18v5.8h-18v10.4h21.1V174.7z"/>
	</g>
</g>
</svg>
